screenshots:
 
http://image.bayimg.com/656139f67b6989af30830eee0a01e678f56bda7c.jpg 
http://image.bayimg.com/4c3772e31f389736aee27f2377a5c5d05a547c6f.jpg 
http://image.bayimg.com/92eb8c241180be7bbec1b18a8b758d6a1ddf0a28.jpg

Info:

Format                                   : MPEG-4
Format profile                           : Base Media
Codec ID                                 : isom
File size                                : 702 MiB
Duration                                 : 1h 25mn
Overall bit rate mode                    : Variable
Overall bit rate                         : 1 143 Kbps
Encoded date                             : UTC 2013-04-05 05:13:56
Tagged date                              : UTC 2013-04-05 05:13:56

Video
ID                                       : 1
Format                                   : AVC
Format/Info                              : Advanced Video Codec
Format profile                           : High@L3.2
Format settings, CABAC                   : Yes
Format settings, ReFrames                : 16 frames
Codec ID                                 : avc1
Codec ID/Info                            : Advanced Video Coding
Duration                                 : 1h 25mn
Bit rate                                 : 1 045 Kbps
Maximum bit rate                         : 4 139 Kbps
Width                                    : 716 pixels
Height                                   : 404 pixels
Display aspect ratio                     : 16:9
Frame rate mode                          : Constant
Frame rate                               : 23.976 fps
Color space                              : YUV
Chroma subsampling                       : 4:2:0
Bit depth                                : 8 bits
Scan type                                : Progressive
Bits/(Pixel*Frame)                       : 0.151
Stream size                              : 642 MiB (91%)
Writing library                          : x264 core 130 r2273 b3065e6
Encoding settings                        : cabac=1 / ref=16 / deblock=1:-1:-1 / analyse=0x3:0x113 / me=umh / subme=10 / psy=1 / psy_rd=1.00:0.00 / mixed_ref=1 / me_range=24 / chroma_me=1 / trellis=2 / 8x8dct=1 / cqm=0 / deadzone=21,11 / fast_pskip=1 / chroma_qp_offset=-4 / threads=12 / lookahead_threads=3 / sliced_threads=0 / nr=0 / decimate=1 / interlaced=0 / bluray_compat=0 / constrained_intra=0 / bframes=16 / b_pyramid=2 / b_adapt=2 / b_bias=0 / direct=1 / weightb=1 / open_gop=0 / weightp=2 / keyint=230 / keyint_min=23 / scenecut=40 / intra_refresh=0 / rc_lookahead=60 / rc=2pass / mbtree=1 / bitrate=1045 / ratetol=1.0 / qcomp=0.60 / qpmin=3 / qpmax=69 / qpstep=4 / cplxblur=20.0 / qblur=0.5 / ip_ratio=1.40 / aq=1:1.00
Encoded date                             : UTC 2013-04-05 05:13:56
Tagged date                              : UTC 2013-04-05 05:14:24

Audio
ID                                       : 2
Format                                   : AAC
Format/Info                              : Advanced Audio Codec
Format profile                           : LC
Codec ID                                 : 40
Duration                                 : 1h 25mn
Bit rate mode                            : Variable
Bit rate                                 : 96.0 Kbps
Maximum bit rate                         : 120 Kbps
Channel(s)                               : 2 channels
Channel positions                        : Front: L R
Sampling rate                            : 48.0 KHz
Compression mode                         : Lossy
Stream size                              : 58.0 MiB (8%)
Encoded date                             : UTC 2013-04-05 05:14:21
Tagged date                              : UTC 2013-04-05 05:14:24

